<?xml version="1.0" standalone="no"?>
<!DOCTYPE svg PUBLIC "-//W3C//DTD SVG 20010904//EN"
 "http://www.w3.org/TR/2001/REC-SVG-20010904/DTD/svg10.dtd">
<svg version="1.0" xmlns="http://www.w3.org/2000/svg"
 width="385.000000pt" height="307.000000pt" viewBox="0 0 385.000000 307.000000"
 preserveAspectRatio="xMidYMid meet">
<metadata>
Created by potrace 1.16, written by Peter Selinger 2001-2019
</metadata>
<g transform="translate(0.000000,307.000000) scale(0.100000,-0.100000)"
fill="#000000" stroke="none">
<path d="M1891 3028 c-45 -22 -181 -151 -181 -172 0 -6 16 -21 36 -34 l36 -23
58 64 c69 75 117 102 167 94 66 -11 124 -116 167 -304 l14 -63 -38 -10 c-22
-6 -43 -16 -47 -23 -4 -6 -10 -48 -13 -92 -4 -62 -8 -80 -20 -80 -12 0 -15 14
-15 63 0 71 -13 83 -67 61 -29 -12 -30 -14 -23 -63 3 -28 12 -60 19 -71 28
-44 25 -59 -4 -25 -19 21 -30 45 -30 65 l0 30 -20 -25 c-14 -17 -20 -39 -19
-70 0 -25 0 -51 0 -57 -1 -16 -149 -18 -203 -3 -55 16 -95 54 -102 98 -11 65
39 205 113 317 l20 30 -29 20 c-34 23 -46 45 -29 55 8 6 7 9 -2 13 -12 4 -11
7 1 16 24 18 -49 6 -87 -14 -39 -20 -41 -25 -9 -23 14 1 24 6 23 11 -1 5 10
10 24 11 14 1 26 -4 26 -10 0 -6 -10 -10 -21 -8 -13 3 -10 0 6 -7 27 -10 27
-11 8 -32 -29 -30 -105 -183 -124 -246 -20 -67 -21 -151 -2 -194 21 -49 72
-94 134 -119 47 -18 77 -22 170 -22 61 0 112 -4 112 -8 0 -4 12 -1 28 7 15 8
52 21 82 30 30 9 110 41 176 71 67 30 131 54 143 54 81 0 -77 -86 -286 -156
l-173 -57 0 -48 c0 -26 3 -54 6 -63 9 -22 31 -20 37 4 8 31 22 24 61 -30 37
-52 87 -90 119 -90 26 0 21 22 -18 73 -19 25 -35 48 -35 51 0 13 18 5 46 -20
62 -55 133 -79 181 -63 40 13 42 26 6 36 -45 11 -81 37 -114 82 -17 24 -29 45
-26 47 2 3 33 -10 68 -28 54 -28 77 -34 144 -36 77 -3 81 -2 115 27 l35 30
-30 1 c-42 2 -63 7 -111 25 -75 29 -82 61 -7 35 37 -13 166 11 202 38 46 34
38 42 -46 43 -90 2 -137 10 -136 24 1 6 39 19 85 31 99 24 120 35 143 70 26
40 3 57 -79 58 -35 1 -67 4 -70 7 -3 3 10 22 29 42 19 20 35 39 35 42 0 15
-39 1 -81 -30 -69 -50 -75 -22 -13 62 23 31 23 31 4 55 -27 33 -47 17 -98 -83
-24 -46 -48 -85 -53 -87 -18 -7 -9 46 16 93 14 26 24 48 23 50 -2 1 -17 7 -33
13 -28 12 -32 20 -58 120 -30 119 -84 242 -125 285 -57 60 -160 75 -241 35z"/>
<path d="M1483 1739 c-24 -22 -43 -48 -43 -56 0 -9 -15 -45 -34 -82 -18 -36
-36 -88 -40 -115 -4 -27 -18 -79 -31 -115 -13 -36 -35 -109 -50 -161 -58 -205
-114 -290 -209 -314 -34 -8 -45 -35 -22 -52 13 -9 59 -12 179 -9 89 2 165 4
170 4 4 1 7 12 7 26 0 21 -8 29 -43 44 -62 27 -80 59 -71 129 8 68 34 116 72
131 37 14 236 8 256 -8 27 -22 47 -95 49 -176 l2 -80 -42 -9 c-31 -6 -43 -14
-43 -27 0 -25 26 -30 90 -20 34 6 102 5 178 -1 88 -8 126 -8 134 0 13 13 4 41
-14 46 -78 23 -105 39 -135 84 -18 27 -33 55 -33 64 0 19 -45 143 -65 179 -8
14 -19 44 -25 67 -5 23 -15 61 -21 85 -5 23 -23 69 -39 102 -16 33 -40 103
-54 155 -44 171 -52 178 -123 109z m38 -249 c14 -41 38 -99 53 -127 26 -53 33
-88 18 -97 -4 -2 -52 -6 -107 -7 l-100 -3 -3 38 c-3 39 25 145 60 229 29 67
47 59 79 -33z"/>
<path d="M3313 1739 c-24 -22 -43 -48 -43 -58 0 -10 -16 -48 -35 -84 -19 -36
-35 -78 -35 -92 0 -15 -13 -66 -29 -114 -15 -47 -40 -129 -55 -181 -16 -52
-47 -133 -69 -179 -41 -82 -44 -86 -107 -119 -122 -63 -92 -82 125 -77 88 2
163 4 168 4 4 1 7 12 7 26 0 21 -8 29 -43 44 -62 27 -80 59 -71 129 14 119 47
142 200 139 60 -2 115 -6 123 -11 25 -16 50 -92 57 -174 l7 -81 -47 -13 c-32
-8 -46 -17 -46 -29 0 -24 25 -30 95 -20 35 5 110 4 178 -2 83 -7 121 -7 129 1
13 13 4 41 -14 46 -78 23 -105 39 -135 84 -18 27 -33 55 -33 64 0 19 -45 143
-65 179 -8 14 -19 44 -25 67 -5 23 -15 61 -21 85 -5 23 -23 69 -39 102 -16 33
-41 107 -56 165 -14 58 -30 113 -36 123 -14 27 -40 20 -85 -24z m32 -234 c11
-33 35 -91 53 -128 18 -37 32 -78 30 -90 -3 -21 -9 -22 -103 -28 -55 -3 -103
-4 -107 -2 -24 12 5 150 54 266 28 64 47 59 73 -18z"/>
<path d="M425 1760 c-16 -4 -103 -8 -193 -9 -150 -1 -163 -2 -160 -18 2 -12
24 -26 61 -38 107 -38 102 -19 105 -373 2 -169 0 -322 -3 -339 -7 -41 -41 -60
-126 -70 -59 -7 -64 -10 -67 -34 -5 -45 18 -54 106 -39 88 15 177 17 382 6
159 -8 166 -9 257 -7 50 1 66 5 83 23 11 12 20 28 20 36 0 8 9 25 20 39 11 14
20 34 20 44 0 10 9 33 20 51 27 44 25 58 -6 58 -38 0 -55 -12 -119 -89 -72
-86 -97 -94 -270 -87 -96 5 -125 10 -145 25 l-25 18 -1 294 c-1 162 -3 303 -5
314 -6 42 2 94 16 108 8 9 44 18 82 22 113 10 123 14 123 40 0 12 -7 26 -16
29 -21 8 -121 6 -159 -4z"/>
<path d="M2235 1753 c-44 -2 -90 -5 -102 -8 -49 -11 -14 -49 58 -64 67 -13 77
-65 81 -411 2 -288 2 -292 -33 -328 -24 -24 -40 -32 -77 -34 -40 -3 -47 -6
-50 -25 -5 -35 59 -50 157 -36 53 8 101 9 156 2 88 -11 137 -6 155 16 15 19
-8 45 -40 45 -12 0 -44 12 -71 26 -39 22 -50 33 -53 58 -19 126 -30 674 -14
693 14 18 71 26 122 19 33 -5 55 -18 93 -54 44 -42 51 -54 62 -109 15 -77 4
-123 -40 -176 -35 -42 -67 -61 -121 -71 -22 -4 -38 -13 -38 -21 0 -24 50 -33
112 -20 92 20 146 61 185 143 40 85 41 155 2 252 -11 30 -63 67 -121 87 -43
15 -241 22 -423 16z"/>
<path d="M989 151 c-40 -40 -36 -93 10 -128 52 -40 150 16 137 79 -16 78 -92
103 -147 49z"/>
</g>
</svg>
